# xmcd CD database file
#
# Track frame offsets:
#	225
#	17842
#	29835
#	50791
#	75771
#	86182
#	108630
#	122979
#	144095
#	163780
#	179803
#	198627
#	216797
#
# Disc length: 3140 seconds
#
# Revision: 0
# Processed by: cddbd v1.5.1PL0 Copyright (c) Steve Scherf et al.
# Submitted via: CDex 1.51
#
DISCID=c20c410d
DTITLE=Bad Influence - Where We Been
DYEAR=1996
DGENRE=Blues
TTITLE0=You Belong To Me
TTITLE1=Shake The Boogie
TTITLE2=Wait On Time
TTITLE3=Scratch My Back
TTITLE4=Loving Machine
TTITLE5=Easy Baby
TTITLE6=Bone In Chicago
TTITLE7=Riding In The Moonlight
TTITLE8=Phone Booth
TTITLE9=Woke Up The Morning
TTITLE10=Hey Little Girl
TTITLE11=Love and War
TTITLE12=Backscratcher
EXTD=YEAR: 1996
EXTT0=
EXTT1=
EXTT2=
EXTT3=
EXTT4=
EXTT5=
EXTT6=
EXTT7=
EXTT8=
EXTT9=
EXTT10=
EXTT11=
EXTT12=
PLAYORDER=
